/* XPM */
static char * outline_folder_open_white_18dp_xpm[] = {
"18 18 2 1",
" 	g None",
".	g #FFFFFF",
"                  ",
"                  ",
"                  ",
"  ......          ",
"  .............   ",
"  ..............  ",
"  .            .. ",
"  .            .. ",
"  .            .. ",
"  .            .. ",
"  .            .. ",
" ..            .. ",
" ..            .. ",
"  ..............  ",
"  ..............  ",
"                  ",
"                  ",
"                  "};
