/* XPM */
static char * outline_save_black_18dp_xpm[] = {
"18 18 2 1",
" 	g None",
".	g #000000",
"                  ",
"                  ",
"   ..........     ",
"  ............    ",
"  .. ......  ..   ",
"  .........   ..  ",
"  .........   ..  ",
"  .. ......   ..  ",
"  ..          ..  ",
"  ..    ..    ..  ",
"  ..   ....   ..  ",
"  ..   ....   ..  ",
"  ..   ....   ..  ",
"  ..          ..  ",
"  ..............  ",
"   ............   ",
"                  ",
"                  "};
