/* XPM */
static char * outline_insert_drive_file_black_18dp_xpm[] = {
"18 18 2 1",
" 	g None",
".	g #000000",
"                  ",
"     .....        ",
"   .........      ",
"   ..     ...     ",
"   ..     ....    ",
"   ..     .....   ",
"   ..     .....   ",
"   ..        ..   ",
"   ..        ..   ",
"   ..        ..   ",
"   ..        ..   ",
"   ..        ..   ",
"   ..        ..   ",
"   ..        ..   ",
"   ..        ..   ",
"   ............   ",
"     ........     ",
"                  "};
